<svg width="40" height="40" viewBox="0 0 40 40" fill="none" xmlns="http://www.w3.org/2000/svg">
<path d="M23.6667 3.33337H19.6667C19.1141 3.33337 18.6667 3.78072 18.6667 4.33337C18.6667 4.88603 19.1141 5.33337 19.6667 5.33337H23.6667C24.2194 5.33337 24.6667 4.88603 24.6667 4.33337C24.6667 3.78072 24.2194 3.33337 23.6667 3.33337Z" fill="#020817"/>
<path d="M28 0H12C9.79469 0 8 1.79469 8 4V36C8 38.2053 9.79469 40 12 40H28C30.2053 40 32 38.2053 32 36V4C32 1.79469 30.2053 0 28 0ZM30 36C30 37.1047 29.1047 38 28 38H12C10.8953 38 10 37.1047 10 36V4C10 2.89531 10.8953 2 12 2H28C29.1047 2 30 2.89531 30 4V36Z" fill="#020817"/>
<path d="M20 36.6666C21.1046 36.6666 22 35.7712 22 34.6666C22 33.5621 21.1046 32.6666 20 32.6666C18.8954 32.6666 18 33.5621 18 34.6666C18 35.7712 18.8954 36.6666 20 36.6666Z" fill="#020817"/>
<path d="M16.3333 5.33337C16.8855 5.33337 17.3333 4.88566 17.3333 4.33337C17.3333 3.78109 16.8855 3.33337 16.3333 3.33337C15.781 3.33337 15.3333 3.78109 15.3333 4.33337C15.3333 4.88566 15.781 5.33337 16.3333 5.33337Z" fill="#020817"/>
</svg>
