<svg width="112" height="40" viewBox="0 0 112 40" fill="none" xmlns="http://www.w3.org/2000/svg">
<path d="M36 15.5423L42.7694 0H44.6235L51.4145 15.5423H49.1292L47.5339 11.7504H39.8374L38.2637 15.5423H36ZM43.6749 2.53526L40.6351 9.89854H46.7793L43.718 2.53526H43.6749ZM53.1678 15.5423V4.78393H55.2805V6.56963C55.6399 5.92297 56.1285 5.4306 56.7465 5.09257C57.3789 4.75454 58.0832 4.58552 58.8593 4.58552C61.3457 4.58552 62.589 6.02583 62.589 8.90648V15.5423H60.4116V9.03876C60.4116 8.11284 60.2318 7.43676 59.8726 7.01055C59.5276 6.58434 58.9814 6.37122 58.2341 6.37122C57.3573 6.37122 56.6531 6.65782 56.1213 7.23101C55.6039 7.78949 55.3452 8.53171 55.3452 9.45763V15.5423H53.1678ZM66.562 19.5105L68.4376 15.2557L64.0397 4.78393H66.368L69.6018 12.9629L72.8787 4.78393H75.1208L68.8473 19.5105H66.562Z" fill="#020817"/>
<path d="M23.6667 3.33337H19.6667C19.1141 3.33337 18.6667 3.78072 18.6667 4.33337C18.6667 4.88603 19.1141 5.33337 19.6667 5.33337H23.6667C24.2194 5.33337 24.6667 4.88603 24.6667 4.33337C24.6667 3.78072 24.2194 3.33337 23.6667 3.33337Z" fill="#020817"/>
<path d="M28 0H12C9.79469 0 8 1.79469 8 4V36C8 38.2053 9.79469 40 12 40H28C30.2053 40 32 38.2053 32 36V4C32 1.79469 30.2053 0 28 0ZM30 36C30 37.1047 29.1047 38 28 38H12C10.8953 38 10 37.1047 10 36V4C10 2.89531 10.8953 2 12 2H28C29.1047 2 30 2.89531 30 4V36Z" fill="#020817"/>
<path d="M20 36.6666C21.1046 36.6666 22 35.7712 22 34.6666C22 33.5621 21.1046 32.6666 20 32.6666C18.8954 32.6666 18 33.5621 18 34.6666C18 35.7712 18.8954 36.6666 20 36.6666Z" fill="#020817"/>
<path d="M16.3333 5.33337C16.8855 5.33337 17.3333 4.88566 17.3333 4.33337C17.3333 3.78109 16.8855 3.33337 16.3333 3.33337C15.781 3.33337 15.3333 3.78109 15.3333 4.33337C15.3333 4.88566 15.781 5.33337 16.3333 5.33337Z" fill="#020817"/>
<path d="M36.1028 38.8334V19.0934H42.7814C45.9804 19.0934 48.4499 19.9427 50.1897 21.6414C51.9295 23.3214 52.7994 25.7574 52.7994 28.9494C52.7994 32.1414 51.9295 34.5867 50.1897 36.2854C48.4499 37.9841 45.9804 38.8334 42.7814 38.8334H36.1028ZM38.4038 36.8734H42.6131C47.7764 36.8734 50.358 34.2321 50.358 28.9494C50.358 23.6854 47.7764 21.0534 42.6131 21.0534H38.4038V36.8734ZM61.644 39.0854C59.4927 39.0854 57.7903 38.4601 56.5368 37.2094C55.2834 35.9401 54.6567 34.2227 54.6567 32.0574C54.6567 30.6574 54.9373 29.4254 55.4986 28.3614C56.0598 27.2787 56.8268 26.4481 57.7996 25.8694C58.7911 25.2721 59.9323 24.9734 61.2231 24.9734C63.0752 24.9734 64.525 25.5707 65.5727 26.7654C66.6203 27.9414 67.1441 29.5654 67.1441 31.6374V32.5054H56.8736C56.9484 34.0547 57.3974 35.2401 58.2205 36.0614C59.0437 36.8641 60.1848 37.2654 61.644 37.2654C62.4672 37.2654 63.2529 37.1441 64.0012 36.9014C64.7495 36.6401 65.4604 36.2201 66.1339 35.6414L66.9196 37.2374C66.3023 37.8161 65.5165 38.2734 64.5624 38.6094C63.6084 38.9267 62.6356 39.0854 61.644 39.0854ZM61.2792 26.6534C59.9884 26.6534 58.9688 27.0547 58.2205 27.8574C57.4722 28.6601 57.0326 29.7147 56.9016 31.0214H65.1798C65.1237 29.6401 64.7589 28.5667 64.0854 27.8014C63.4306 27.0361 62.4952 26.6534 61.2792 26.6534ZM73.1596 38.8334L67.2947 25.2254H69.7641L74.282 36.2574L78.8561 25.2254H81.1852L75.2922 38.8334H73.1596ZM82.1856 21.8374V19.2894H84.9917V21.8374H82.1856ZM82.4662 38.8334V25.2254H84.7392V38.8334H82.4662ZM93.6465 39.0854C92.2808 39.0854 91.1022 38.7961 90.1107 38.2174C89.1192 37.6201 88.3522 36.7894 87.8097 35.7254C87.2859 34.6427 87.0239 33.3827 87.0239 31.9454C87.0239 29.7801 87.6132 28.0814 88.7918 26.8494C89.9704 25.5987 91.5886 24.9734 93.6465 24.9734C94.4883 24.9734 95.3208 25.1227 96.1439 25.4214C96.9671 25.7201 97.6499 26.1401 98.1924 26.6814L97.4067 28.3334C96.8642 27.8107 96.2655 27.4281 95.6108 27.1854C94.9747 26.9427 94.3667 26.8214 93.7868 26.8214C92.365 26.8214 91.2706 27.2694 90.5036 28.1654C89.7366 29.0427 89.3531 30.3121 89.3531 31.9734C89.3531 33.5974 89.7366 34.8854 90.5036 35.8374C91.2706 36.7707 92.365 37.2374 93.7868 37.2374C94.3667 37.2374 94.9747 37.1161 95.6108 36.8734C96.2655 36.6307 96.8642 36.2387 97.4067 35.6974L98.1924 37.3494C97.6499 37.8907 96.9577 38.3201 96.1159 38.6374C95.2927 38.9361 94.4696 39.0854 93.6465 39.0854ZM105.604 39.0854C103.453 39.0854 101.75 38.4601 100.497 37.2094C99.2436 35.9401 98.6169 34.2227 98.6169 32.0574C98.6169 30.6574 98.8975 29.4254 99.4587 28.3614C100.02 27.2787 100.787 26.4481 101.76 25.8694C102.751 25.2721 103.892 24.9734 105.183 24.9734C107.035 24.9734 108.485 25.5707 109.533 26.7654C110.58 27.9414 111.104 29.5654 111.104 31.6374V32.5054H100.834C100.909 34.0547 101.358 35.2401 102.181 36.0614C103.004 36.8641 104.145 37.2654 105.604 37.2654C106.427 37.2654 107.213 37.1441 107.961 36.9014C108.71 36.6401 109.421 36.2201 110.094 35.6414L110.88 37.2374C110.262 37.8161 109.477 38.2734 108.523 38.6094C107.569 38.9267 106.596 39.0854 105.604 39.0854ZM105.239 26.6534C103.949 26.6534 102.929 27.0547 102.181 27.8574C101.432 28.6601 100.993 29.7147 100.862 31.0214H109.14C109.084 29.6401 108.719 28.5667 108.046 27.8014C107.391 27.0361 106.455 26.6534 105.239 26.6534Z" fill="#020817"/>
</svg>
